<svg width="139" height="63" viewBox="0 0 139 63" fill="none" xmlns="http://www.w3.org/2000/svg">
<path d="M93.4688 33.1094H88.9375V39.6562H93.4688C95.4219 39.6562 96.6406 38.2031 96.6406 36.375C96.6406 34.4062 95.3594 33.1094 93.4688 33.1094ZM101.906 36.3906C101.906 40.9219 98.4062 43.9844 93.8281 43.9844H88.9375V50H83.7969V28.7812H93.8281C98.4062 28.7812 101.906 31.8438 101.906 36.3906ZM120.234 45.6875V50H104.328V28.7812H109.469V45.6875H120.234ZM129.906 28.4688C132.984 28.4688 135.344 29.1094 137.047 29.9531L136.625 34.3438C135.859 33.8438 132.656 32.9062 130.125 32.9062C128.312 32.9062 126.844 33.375 126.844 34.8125C126.844 36.125 128.094 36.4531 129.312 36.7969L132.344 37.6719C136.25 38.7969 138.188 40.4062 138.188 43.75C138.188 47.6406 134.906 50.3125 129.734 50.3125C126.609 50.3125 123.109 49.4375 121.719 48.6562L122.125 44.1406C122.656 44.7188 126.453 45.8125 129.375 45.8125C131.297 45.8125 132.906 45.3438 132.906 43.9219C132.906 42.9375 132.234 42.4375 130.688 42.0312L127.375 41.1875C124.547 40.2656 121.578 38.875 121.578 35.0625C121.578 31.1094 124.891 28.4688 129.906 28.4688Z" fill="white"/>
<g clip-path="url(#clip0_2047_71)">
<path d="M73.4711 48.2368C70.4021 43.2964 67.0059 41.7691 63.7641 42.8353C59.4982 44.2378 46.4489 48.5925 40.4602 51.6767C45.6318 39.5001 38.096 29.2539 31.1344 23.0557C31.1344 23.0557 58.6036 25.7516 61.4051 27.5469C63.4612 28.8641 66.0528 31.3499 67.2445 32.7866C70.1347 32.4272 73.6499 32.8163 74.6037 34.224C75.898 36.1344 77.4044 45.6916 73.4718 48.2368H73.4711Z" fill="white"/>
<path d="M6.04779 0C4.2008 3.32333 5.79586 13.5005 14.0918 20.1212C19.157 24.1632 29.7705 28.2543 33.398 38.176C36.8246 47.5475 32.6533 56.98 8.66904 62.9681C17.4881 63.447 44.1534 58.7166 37.6579 37.487C36.3458 33.1984 30.7384 25.4774 21.3608 20.1204C15.7009 16.8877 7.26976 10.0606 6.04779 0Z" fill="white"/>
<path d="M2.41365 13.8037C2.3841 18.4145 2.41365 25.4814 13.0797 31.2C19.7961 34.801 28.6616 39.6739 29.079 49.5243C30.7177 45.7214 32.0882 40.1825 24.8184 33.296C20.6272 29.3252 17.5486 28.236 13.9138 26.3791C10.3971 24.583 4.55838 19.9418 2.41365 13.8037Z" fill="white"/>
<path d="M0 25.4814C3.84322 31.6797 8.73775 34.3741 12.2153 35.9311C17.6971 38.3865 26.576 44.0152 24.0434 52.2196C21.3623 45.2128 18.8888 43.7457 10.8743 40.4223C5.72715 38.2877 0 33.6554 0 25.4814Z" fill="white"/>
<path d="M3.24775 39.4941C5.42277 42.1886 8.28043 43.5867 11.2024 44.8838C13.4963 45.9017 20.8259 48.4766 19.932 54.1061C17.1017 50.3031 14.063 49.1954 10.1895 48.2079C5.89338 47.112 3.24775 42.9682 3.24775 39.4949V39.4941Z" fill="white"/>
<path d="M5.9414 49.5166C7.45594 51.0201 8.90545 51.4998 10.5072 51.7819C12.9895 52.2192 15.4032 52.6684 16.7441 55.4824C14.6289 54.4645 12.5285 54.5721 10.3683 54.3746C7.66206 54.1274 5.90151 51.2228 5.9414 49.5166Z" fill="white"/>
</g>
<defs>
<clipPath id="clip0_2047_71">
<rect width="76" height="63" fill="white"/>
</clipPath>
</defs>
</svg>
